# xmcd
# 
# Track frame offsets:
#     150
#     14992
#     24516
#     34736
#     45216
#     56662
#     91855
#     105798
#     116175
#     127757
#     137937
#     152175
#     162906
#     180692
#     195573
#     215207
#     227866
#     238913
# 
# Disc length: 3506
# 
# Revision: 1
# Processed by: cddbd v1.5.2PL0 Copyright (c) Steve Scherf et al.
# Submitted via: fre:ac v1.0.17
# 
DISCID=f70db012
DTITLE=Diverse - Soul Sisters II
DYEAR=2008
DGENRE=Soul
TTITLE0=Les Fleur - Minnie Riperton
TTITLE1=Stop Running Around - Gladys Knight
TTITLE2=I Can´t Afford To Lose Him - Ella Washington
TTITLE3=Your Losing Me - Ann Sexton
TTITLE4=Behave Yourself - Miss Madelaine
TTITLE5=High Energy - Evelyn Thomas
TTITLE6=Just Because The package Has Been unwrapped - Alder Ray Black
TTITLE7=Hitting On Nothing - Irma Thomas
TTITLE8=I Want To Love You Baby - Peggy Scott and Jo Jo Benson
TTITLE9=The Shoop Shoop Song (It´s In His Kiss) - Betty Everett
TTITLE10=Ride Your Pony  - Betty Harris
TTITLE11=Ain´t Gonna Cry No More - Josephine Taylor
TTITLE12=River Deep Mountain High - Tina Turner
TTITLE13=Black Coffee - Sarah Vaughan
TTITLE14=Hey Jude - Theresa Graves
TTITLE15=Chapel Of Love - Dixie Cups
TTITLE16=Cry Me A River - Dinah Washington
TTITLE17=I Want To Thank You - The Staple Singers
EXTD=
EXTT0=
EXTT1=
EXTT2=
EXTT3=
EXTT4=
EXTT5=
EXTT6=
EXTT7=
EXTT8=
EXTT9=
EXTT10=
EXTT11=
EXTT12=
EXTT13=
EXTT14=
EXTT15=
EXTT16=
EXTT17=
PLAYORDER=
